{
  "accessors": [
    {
      "bufferView": 1,
      "componentType": 5126,
      "count": 1632,
      "max": [
        4.571971893310547,
        12.788952827453613,
        21.383636474609375
      ],
      "min": [
        -7.997469902038574,
        -15.431130409240723,
        0.16075299680233002
      ],
      "type": "VEC3"
    },
    {
      "bufferView": 1,
      "byteOffset": 19584,
      "componentType": 5126,
      "count": 1632,
      "max": [
        0.9946401119232178,
        0.9982158541679382,
        0.9993653297424316
      ],
      "min": [
        -0.9967093467712402,
        -0.9987016320228577,
        -0.9988187551498413
      ],
      "type": "VEC3"
    },
    {
      "bufferView": 0,
      "componentType": 5125,
      "count": 9660,
      "type": "SCALAR"
    },
    {
      "bufferView": 1,
      "byteOffset": 39168,
      "componentType": 5126,
      "count": 1604,
      "max": [
        3.3883121013641357,
        4.30348014831543,
        33.18023681640625
      ],
      "min": [
        -6.574732780456543,
        -10.653648376464844,
        4.669797897338867
      ],
      "type": "VEC3"
    },
    {
      "bufferView": 1,
      "byteOffset": 58416,
      "componentType": 5126,
      "count": 1604,
      "max": [
        0.9981566667556763,
        0.9971943497657776,
        0.9986024498939514
      ],
      "min": [
        -0.998927116394043,
        -0.9987441301345825,
        -0.9971194863319397
      ],
      "type": "VEC3"
    },
    {
      "bufferView": 0,
      "byteOffset": 38640,
      "componentType": 5125,
      "count": 9540,
      "type": "SCALAR"
    },
    {
      "bufferView": 1,
      "byteOffset": 77664,
      "componentType": 5126,
      "count": 1632,
      "max": [
        3.2460319995880127,
        -0.12102899700403214,
        22.34027099609375
      ],
      "min": [
        -5.081374168395996,
        -11.789042472839355,
        3.5804920196533203
      ],
      "type": "VEC3"
    },
    {
      "bufferView": 1,
      "byteOffset": 97248,
      "componentType": 5126,
      "count": 1632,
      "max": [
        0.9998022317886353,
        0.9993820190429688,
        0.9963957667350769
      ],
      "min": [
        -0.9998269081115723,
        -0.9996722340583801,
        -0.986549973487854
      ],
      "type": "VEC3"
    },
    {
      "bufferView": 0,
      "byteOffset": 76800,
      "componentType": 5125,
      "count": 9720,
      "type": "SCALAR"
    },
    {
      "bufferView": 1,
      "byteOffset": 116832,
      "componentType": 5126,
      "count": 1440,
      "max": [
        1.5807119607925415,
        11.12794017791748,
        28.729917526245117
      ],
      "min": [
        -7.523074150085449,
        -4.539540767669678,
        1.4524940252304077
      ],
      "type": "VEC3"
    },
    {
      "bufferView": 1,
      "byteOffset": 134112,
      "componentType": 5126,
      "count": 1440,
      "max": [
        0.998875617980957,
        0.9952981472015381,
        0.9973016381263733
      ],
      "min": [
        -0.9989342093467712,
        -0.9931449890136719,
        -0.9982885122299194
      ],
      "type": "VEC3"
    },
    {
      "bufferView": 0,
      "byteOffset": 115680,
      "componentType": 5125,
      "count": 8580,
      "type": "SCALAR"
    },
    {
      "bufferView": 1,
      "byteOffset": 151392,
      "componentType": 5126,
      "count": 1348,
      "max": [
        -0.6714280247688293,
        11.835412979125977,
        22.409711837768555
      ],
      "min": [
        -6.9305219650268555,
        -3.7264060974121094,
        1.5280799865722656
      ],
      "type": "VEC3"
    },
    {
      "bufferView": 1,
      "byteOffset": 167568,
      "componentType": 5126,
      "count": 1348,
      "max": [
        0.9968043565750122,
        0.9997663497924805,
        0.9942325353622437
      ],
      "min": [
        -0.9994691014289856,
        -0.9997677803039551,
        -0.9938542246818542
      ],
      "type": "VEC3"
    },
    {
      "bufferView": 0,
      "byteOffset": 150000,
      "componentType": 5125,
      "count": 8040,
      "type": "SCALAR"
    },
    {
      "bufferView": 1,
      "byteOffset": 183744,
      "componentType": 5126,
      "count": 1568,
      "max": [
        3.0238819122314453,
        1.6044089794158936,
        29.757139205932617
      ],
      "min": [
        -3.7182068824768066,
        -9.836630821228027,
        9.456318855285645
      ],
      "type": "VEC3"
    },
    {
      "bufferView": 1,
      "byteOffset": 202560,
      "componentType": 5126,
      "count": 1568,
      "max": [
        0.9996246695518494,
        0.9959679841995239,
        0.998553454875946
      ],
      "min": [
        -0.9999004602432251,
        -0.9955857396125793,
        -0.9993900060653687
      ],
      "type": "VEC3"
    },
    {
      "bufferView": 0,
      "byteOffset": 182160,
      "componentType": 5125,
      "count": 9360,
      "type": "SCALAR"
    },
    {
      "bufferView": 1,
      "byteOffset": 221376,
      "componentType": 5126,
      "count": 1286,
      "max": [
        3.821592092514038,
        5.54102087020874,
        10.699898719787598
      ],
      "min": [
        -6.080362796783447,
        -12.501723289489746,
        0.7167069911956787
      ],
      "type": "VEC3"
    },
    {
      "bufferView": 1,
      "byteOffset": 236808,
      "componentType": 5126,
      "count": 1286,
      "max": [
        0.9952587485313416,
        0.999991238117218,
        0.9999396204948425
      ],
      "min": [
        -0.9952837824821472,
        -0.9999973773956299,
        -0.9999361038208008
      ],
      "type": "VEC3"
    },
    {
      "bufferView": 0,
      "byteOffset": 219600,
      "componentType": 5125,
      "count": 7680,
      "type": "SCALAR"
    },
    {
      "bufferView": 1,
      "byteOffset": 252240,
      "componentType": 5126,
      "count": 1496,
      "max": [
        0.41892701387405396,
        1.2396990060806274,
        28.328964233398438
      ],
      "min": [
        -5.983119010925293,
        -3.262845039367676,
        5.79834508895874
      ],
      "type": "VEC3"
    },
    {
      "bufferView": 1,
      "byteOffset": 270192,
      "componentType": 5126,
      "count": 1496,
      "max": [
        0.9941573739051819,
        0.9988513588905334,
        0.9983842372894287
      ],
      "min": [
        -0.9919001460075378,
        -0.9994053840637207,
        -0.9969973564147949
      ],
      "type": "VEC3"
    },
    {
      "bufferView": 0,
      "byteOffset": 250320,
      "componentType": 5125,
      "count": 8940,
      "type": "SCALAR"
    },
    {
      "bufferView": 1,
      "byteOffset": 288144,
      "componentType": 5126,
      "count": 1104,
      "max": [
        3.9058120250701904,
        -1.2255150079727173,
        9.898980140686035
      ],
      "min": [
        -0.7977290153503418,
        -13.293938636779785,
        0.6773099899291992
      ],
      "type": "VEC3"
    },
    {
      "bufferView": 1,
      "byteOffset": 301392,
      "componentType": 5126,
      "count": 1104,
      "max": [
        0.9929962158203125,
        0.9994737505912781,
        0.9958922266960144
      ],
      "min": [
        -0.9941520094871521,
        -0.9995037913322449,
        -0.9956116676330566
      ],
      "type": "VEC3"
    },
    {
      "bufferView": 0,
      "byteOffset": 286080,
      "componentType": 5125,
      "count": 6600,
      "type": "SCALAR"
    },
    {
      "bufferView": 1,
      "byteOffset": 314640,
      "componentType": 5126,
      "count": 1284,
      "max": [
        -3.535804033279419,
        10.789037704467773,
        28.67067527770996
      ],
      "min": [
        -6.686034202575684,
        -3.1193249225616455,
        1.8661119937896729
      ],
      "type": "VEC3"
    },
    {
      "bufferView": 1,
      "byteOffset": 330048,
      "componentType": 5126,
      "count": 1284,
      "max": [
        0.9958157539367676,
        0.9825712442398071,
        0.9941882491111755
      ],
      "min": [
        -0.995468020439148,
        -0.9844302535057068,
        -0.9943259954452515
      ],
      "type": "VEC3"
    },
    {
      "bufferView": 0,
      "byteOffset": 312480,
      "componentType": 5125,
      "count": 7680,
      "type": "SCALAR"
    },
    {
      "bufferView": 1,
      "byteOffset": 345456,
      "componentType": 5126,
      "count": 3132,
      "max": [
        0.40762799978256226,
        0.6208189725875854,
        13.273844718933105
      ],
      "min": [
        -4.4049859046936035,
        -3.3382160663604736,
        8.580632209777832
      ],
      "type": "VEC3"
    },
    {
      "bufferView": 1,
      "byteOffset": 383040,
      "componentType": 5126,
      "count": 3132,
      "max": [
        0.9998651146888733,
        0.9925245046615601,
        0.9977112412452698
      ],
      "min": [
        -0.9979174733161926,
        -0.9936519861221313,
        -0.9986459016799927
      ],
      "type": "VEC3"
    },
    {
      "bufferView": 0,
      "byteOffset": 343200,
      "componentType": 5125,
      "count": 18780,
      "type": "SCALAR"
    }
  ],
  "asset": {
    "extras": {
      "author": "vSpline (https://sketchfab.com/vSpline)",
      "license": "CC-BY-4.0 (http://creativecommons.org/licenses/by/4.0/)",
      "source": "https://sketchfab.com/3d-models/yoga-woman-f7cc2ad8539f46a08c30448e8654db53",
      "title": "Yoga Woman"
    },
    "generator": "Sketchfab-12.65.0",
    "version": "2.0"
  },
  "bufferViews": [
    {
      "buffer": 0,
      "byteLength": 418320,
      "name": "floatBufferViews",
      "target": 34963
    },
    {
      "buffer": 0,
      "byteLength": 420624,
      "byteOffset": 418320,
      "byteStride": 12,
      "name": "floatBufferViews",
      "target": 34962
    }
  ],
  "buffers": [
    {
      "byteLength": 838944,
      "uri": "scene.bin"
    }
  ],
  "materials": [
    {
      "doubleSided": true,
      "name": "Scene_-_Root",
      "pbrMetallicRoughness": {
        "metallicFactor": 0.5
      }
    }
  ],
  "meshes": [
    {
      "name": "Object_0",
      "primitives": [
        {
          "attributes": {
            "NORMAL": 1,
            "POSITION": 0
          },
          "indices": 2,
          "material": 0,
          "mode": 4
        }
      ]
    },
    {
      "name": "Object_1",
      "primitives": [
        {
          "attributes": {
            "NORMAL": 4,
            "POSITION": 3
          },
          "indices": 5,
          "material": 0,
          "mode": 4
        }
      ]
    },
    {
      "name": "Object_2",
      "primitives": [
        {
          "attributes": {
            "NORMAL": 7,
            "POSITION": 6
          },
          "indices": 8,
          "material": 0,
          "mode": 4
        }
      ]
    },
    {
      "name": "Object_3",
      "primitives": [
        {
          "attributes": {
            "NORMAL": 10,
            "POSITION": 9
          },
          "indices": 11,
          "material": 0,
          "mode": 4
        }
      ]
    },
    {
      "name": "Object_4",
      "primitives": [
        {
          "attributes": {
            "NORMAL": 13,
            "POSITION": 12
          },
          "indices": 14,
          "material": 0,
          "mode": 4
        }
      ]
    },
    {
      "name": "Object_5",
      "primitives": [
        {
          "attributes": {
            "NORMAL": 16,
            "POSITION": 15
          },
          "indices": 17,
          "material": 0,
          "mode": 4
        }
      ]
    },
    {
      "name": "Object_6",
      "primitives": [
        {
          "attributes": {
            "NORMAL": 19,
            "POSITION": 18
          },
          "indices": 20,
          "material": 0,
          "mode": 4
        }
      ]
    },
    {
      "name": "Object_7",
      "primitives": [
        {
          "attributes": {
            "NORMAL": 22,
            "POSITION": 21
          },
          "indices": 23,
          "material": 0,
          "mode": 4
        }
      ]
    },
    {
      "name": "Object_8",
      "primitives": [
        {
          "attributes": {
            "NORMAL": 25,
            "POSITION": 24
          },
          "indices": 26,
          "material": 0,
          "mode": 4
        }
      ]
    },
    {
      "name": "Object_9",
      "primitives": [
        {
          "attributes": {
            "NORMAL": 28,
            "POSITION": 27
          },
          "indices": 29,
          "material": 0,
          "mode": 4
        }
      ]
    },
    {
      "name": "Object_10",
      "primitives": [
        {
          "attributes": {
            "NORMAL": 31,
            "POSITION": 30
          },
          "indices": 32,
          "material": 0,
          "mode": 4
        }
      ]
    }
  ],
  "nodes": [
    {
      "children": [
        1
      ],
      "matrix": [
        0.018999097868800163,
        0.0,
        0.0,
        0.0,
        0.0,
        4.2186471802097366e-18,
        -0.018999097868800163,
        0.0,
        0.0,
        0.018999097868800163,
        4.2186471802097366e-18,
        0.0,
        0.0,
        0.0,
        0.0,
        1.0
      ],
      "name": "Sketchfab_model"
    },
    {
      "children": [
        2,
        3,
        4,
        5,
        6,
        7,
        8,
        9,
        10,
        11,
        12
      ],
      "name": "woman.obj.cleaner.materialmerger.gles"
    },
    {
      "mesh": 0,
      "name": "Object_2"
    },
    {
      "mesh": 1,
      "name": "Object_3"
    },
    {
      "mesh": 2,
      "name": "Object_4"
    },
    {
      "mesh": 3,
      "name": "Object_5"
    },
    {
      "mesh": 4,
      "name": "Object_6"
    },
    {
      "mesh": 5,
      "name": "Object_7"
    },
    {
      "mesh": 6,
      "name": "Object_8"
    },
    {
      "mesh": 7,
      "name": "Object_9"
    },
    {
      "mesh": 8,
      "name": "Object_10"
    },
    {
      "mesh": 9,
      "name": "Object_11"
    },
    {
      "mesh": 10,
      "name": "Object_12"
    }
  ],
  "scene": 0,
  "scenes": [
    {
      "name": "Sketchfab_Scene",
      "nodes": [
        0
      ]
    }
  ]
}
